<svg width="29" height="25" viewBox="0 0 29 25" fill="none" xmlns="http://www.w3.org/2000/svg">
<g clip-path="url(#clip0_601_3657)">
<path d="M2.89999 24.5C2.36666 24.5 1.89999 24.3 1.49999 23.9C1.09999 23.5 0.899994 23.0333 0.899994 22.5V2.5C0.899994 1.96667 1.09999 1.5 1.49999 1.1C1.89999 0.7 2.36666 0.5 2.89999 0.5H26.1C26.6333 0.5 27.1 0.7 27.5 1.1C27.9 1.5 28.1 1.96667 28.1 2.5V22.5C28.1 23.0333 27.9 23.5 27.5 23.9C27.1 24.3 26.6333 24.5 26.1 24.5H2.89999ZM2.89999 22.5H26.1V2.5H2.89999V22.5ZM5.16666 19.1667H11.8333V16.5H5.16666V19.1667ZM17.9 16.5L24.5 9.9L22.6 8L17.9 12.7333L16 10.8333L14.1333 12.7333L17.9 16.5ZM5.16666 13.8333H11.8333V11.1667H5.16666V13.8333ZM5.16666 8.5H11.8333V5.83333H5.16666V8.5ZM2.89999 22.5V2.5V22.5Z" fill="#CCCCCC"/>
</g>
<defs>
<clipPath id="clip0_601_3657">
<rect width="28" height="24" fill="white" transform="translate(0.5 0.5)"/>
</clipPath>
</defs>
</svg>
