<svg width="29" height="25" viewBox="0 0 29 25" fill="none" xmlns="http://www.w3.org/2000/svg">
<path d="M14.5 24.9667L13.1333 23.7333C10.7778 21.5778 8.83332 19.7167 7.29999 18.15C5.76666 16.5833 4.54443 15.1833 3.63332 13.95C2.72221 12.7167 2.08332 11.6 1.71666 10.6C1.34999 9.6 1.16666 8.58889 1.16666 7.56667C1.16666 5.56667 1.83888 3.89444 3.18332 2.55C4.52777 1.20555 6.18888 0.533333 8.16666 0.533333C9.43332 0.533333 10.6055 0.833333 11.6833 1.43333C12.7611 2.03333 13.7 2.9 14.5 4.03333C15.4333 2.83333 16.4222 1.95 17.4667 1.38333C18.5111 0.816666 19.6333 0.533333 20.8333 0.533333C22.8111 0.533333 24.4722 1.20555 25.8167 2.55C27.1611 3.89444 27.8333 5.56667 27.8333 7.56667C27.8333 8.58889 27.65 9.6 27.2833 10.6C26.9167 11.6 26.2778 12.7167 25.3667 13.95C24.4555 15.1833 23.2333 16.5833 21.7 18.15C20.1667 19.7167 18.2222 21.5778 15.8667 23.7333L14.5 24.9667ZM14.5 22.3333C16.7444 20.2667 18.5944 18.4944 20.05 17.0167C21.5055 15.5389 22.6611 14.2444 23.5167 13.1333C24.3722 12.0222 24.9722 11.0333 25.3167 10.1667C25.6611 9.3 25.8333 8.43333 25.8333 7.56667C25.8333 6.1 25.3667 4.89444 24.4333 3.95C23.5 3.00556 22.3 2.53333 20.8333 2.53333C19.7 2.53333 18.6444 2.88333 17.6667 3.58333C16.6889 4.28333 15.9 5.26667 15.3 6.53333H13.6667C13.0889 5.28889 12.3111 4.31111 11.3333 3.6C10.3555 2.88889 9.29999 2.53333 8.16666 2.53333C6.69999 2.53333 5.49999 3.00556 4.56666 3.95C3.63332 4.89444 3.16666 6.1 3.16666 7.56667C3.16666 8.43333 3.33888 9.30555 3.68332 10.1833C4.02777 11.0611 4.62777 12.0611 5.48332 13.1833C6.33888 14.3056 7.49999 15.6 8.96666 17.0667C10.4333 18.5333 12.2778 20.2889 14.5 22.3333Z" fill="#CCCCCC"/>
</svg>
