<svg width="25" height="21" viewBox="0 0 25 21" fill="none" xmlns="http://www.w3.org/2000/svg">
<g clip-path="url(#clip0_601_3661)">
<path d="M2.2 20.5C1.73333 20.5 1.33333 20.3389 1 20.0167C0.666667 19.6944 0.5 19.3111 0.5 18.8667C0.5 18.4 0.666667 18 1 17.6667C1.33333 17.3333 1.73333 17.1667 2.2 17.1667C2.64444 17.1667 3.02778 17.3333 3.35 17.6667C3.67222 18 3.83333 18.4 3.83333 18.8667C3.83333 19.3111 3.67222 19.6944 3.35 20.0167C3.02778 20.3389 2.64444 20.5 2.2 20.5ZM7.16667 19.8333V17.8333H24.5V19.8333H7.16667ZM2.2 12.1667C1.73333 12.1667 1.33333 12.0056 1 11.6833C0.666667 11.3611 0.5 10.9667 0.5 10.5C0.5 10.0333 0.666667 9.63889 1 9.31667C1.33333 8.99444 1.73333 8.83333 2.2 8.83333C2.64444 8.83333 3.02778 9 3.35 9.33333C3.67222 9.66667 3.83333 10.0556 3.83333 10.5C3.83333 10.9444 3.67222 11.3333 3.35 11.6667C3.02778 12 2.64444 12.1667 2.2 12.1667ZM7.16667 11.5V9.5H24.5V11.5H7.16667ZM2.16667 3.83333C1.7 3.83333 1.30556 3.67222 0.983333 3.35C0.661111 3.02778 0.5 2.63333 0.5 2.16667C0.5 1.7 0.661111 1.30556 0.983333 0.983334C1.30556 0.661111 1.7 0.5 2.16667 0.5C2.63333 0.5 3.02778 0.661111 3.35 0.983334C3.67222 1.30556 3.83333 1.7 3.83333 2.16667C3.83333 2.63333 3.67222 3.02778 3.35 3.35C3.02778 3.67222 2.63333 3.83333 2.16667 3.83333ZM7.16667 3.16667V1.16667H24.5V3.16667H7.16667Z" fill="#CCCCCC"/>
</g>
<defs>
<clipPath id="clip0_601_3661">
<rect width="24" height="20" fill="white" transform="translate(0.5 0.5)"/>
</clipPath>
</defs>
</svg>
